<?xml version="1.0" encoding="UTF-8" standalone="no"?>
<!-- Created with Inkscape (http://www.inkscape.org/) -->
<svg
   xmlns:dc="http://purl.org/dc/elements/1.1/"
   xmlns:cc="http://creativecommons.org/ns#"
   xmlns:rdf="http://www.w3.org/1999/02/22-rdf-syntax-ns#"
   xmlns:svg="http://www.w3.org/2000/svg"
   xmlns="http://www.w3.org/2000/svg"
   xmlns:sodipodi="http://sodipodi.sourceforge.net/DTD/sodipodi-0.dtd"
   xmlns:inkscape="http://www.inkscape.org/namespaces/inkscape"
   width="490.28125"
   height="542.31189"
   id="svg2"
   sodipodi:version="0.32"
   inkscape:version="0.46"
   version="1.0"
   sodipodi:docname="Luz y Fuerza 1903 a 2009.svg"
   inkscape:output_extension="org.inkscape.output.svg.inkscape">
  <defs
     id="defs4">
    <inkscape:perspective
       sodipodi:type="inkscape:persp3d"
       inkscape:vp_x="0 : 526.18109 : 1"
       inkscape:vp_y="0 : 1000 : 0"
       inkscape:vp_z="744.09448 : 526.18109 : 1"
       inkscape:persp3d-origin="372.04724 : 350.78739 : 1"
       id="perspective10" />
    <inkscape:perspective
       id="perspective2447"
       inkscape:persp3d-origin="372.04724 : 350.78739 : 1"
       inkscape:vp_z="744.09448 : 526.18109 : 1"
       inkscape:vp_y="0 : 1000 : 0"
       inkscape:vp_x="0 : 526.18109 : 1"
       sodipodi:type="inkscape:persp3d" />
  </defs>
  <sodipodi:namedview
     id="base"
     pagecolor="#ffffff"
     bordercolor="#666666"
     borderopacity="1.0"
     inkscape:pageopacity="0.0"
     inkscape:pageshadow="2"
     inkscape:zoom="0.47666298"
     inkscape:cx="205.36606"
     inkscape:cy="258.25979"
     inkscape:document-units="mm"
     inkscape:current-layer="layer1"
     showgrid="false"
     inkscape:window-width="1280"
     inkscape:window-height="722"
     inkscape:window-x="-4"
     inkscape:window-y="20" />
  <metadata
     id="metadata7">
    <rdf:RDF>
      <cc:Work
         rdf:about="">
        <dc:format>image/svg+xml</dc:format>
        <dc:type
           rdf:resource="http://purl.org/dc/dcmitype/StillImage" />
      </cc:Work>
    </rdf:RDF>
  </metadata>
  <g
     inkscape:label="Capa 1"
     inkscape:groupmode="layer"
     id="layer1"
     transform="translate(-109.14508,-284.71933)">
    <path
       d="M 565.71428,526.64789 A 211.42857,211.42857 0 1 1 142.85713,526.64789 A 211.42857,211.42857 0 1 1 565.71428,526.64789 z"
       sodipodi:ry="211.42857"
       sodipodi:rx="211.42857"
       sodipodi:cy="526.64789"
       sodipodi:cx="354.28571"
       id="path2455"
       style="opacity:1;fill:#000000;fill-opacity:1;fill-rule:nonzero;stroke:none;stroke-width:0.53149605;stroke-miterlimit:4;stroke-dasharray:none;stroke-dashoffset:0;stroke-opacity:1"
       sodipodi:type="arc"
       transform="matrix(1.0809793,0,0,1.0809793,-28.689807,-42.647575)" />
    <path
       style="opacity:1;fill:#ce1126;fill-opacity:1;fill-rule:nonzero;stroke:none;stroke-width:0.53149605000000000;stroke-miterlimit:4;stroke-dasharray:none;stroke-dashoffset:0;stroke-opacity:1"
       d="M 446.34375,336.28125 L 362.84375,442.375 L 382.84375,458.0625 L 315.71875,566.65625 L 355.71875,578.0625 L 237.40625,702.8125 C 270.89277,725.08084 311.07997,738.06249 354.28125,738.0625 C 470.98982,738.0625 565.71873,643.36482 565.71875,526.65625 C 565.71875,442.93184 516.98447,370.52192 446.34375,336.28125 z"
       id="path2453" />
    <path
       style="opacity:1;fill:#006847;fill-opacity:1;fill-rule:nonzero;stroke:none;stroke-width:0.53149605000000000;stroke-miterlimit:4;stroke-dasharray:none;stroke-dashoffset:0;stroke-opacity:1"
       d="M 354.28125,315.21875 C 237.57268,315.21875 142.84375,409.94768 142.84375,526.65625 C 142.84375,600.16354 180.42869,664.92277 237.40625,702.8125 L 355.71875,578.0625 L 315.71875,566.65625 L 382.84375,458.0625 L 362.84375,442.375 L 446.34375,336.28125 C 418.51406,322.79176 387.26541,315.21875 354.28125,315.21875 z"
       id="path2537" />
    <path
       style="fill:#ffffff;fill-opacity:1;fill-rule:evenodd;stroke:#000000;stroke-width:1px;stroke-linecap:butt;stroke-linejoin:miter;stroke-opacity:1"
       d="M 485.71429,285.21933 L 315.71429,473.79075 L 360,469.50504 L 261.42857,602.36218 L 317.14286,598.07647 L 192.85714,750.93361 L 395,560.21932 L 341.42857,558.07647 L 407.14286,446.6479 L 381.42857,443.79075 L 485.71429,285.21933 z"
       id="path2459"
       sodipodi:nodetypes="ccccccccccc" />
    <path
       style="fill:none;fill-rule:evenodd;stroke:none;stroke-width:1px;stroke-linecap:butt;stroke-linejoin:miter;stroke-opacity:1"
       d="M 349.46429,511.46932 C 349.52381,511.46932 349.58333,511.46932 349.46429,511.46932 z"
       id="path2465" />
    <path
       style="opacity:1;fill:#000000;fill-opacity:1;fill-rule:nonzero;stroke:none;stroke-width:0.18007667;stroke-miterlimit:4;stroke-dasharray:none;stroke-dashoffset:0;stroke-opacity:1"
       d="M 330.51809,515.43638 L 338.28957,537.02499 L 325.61592,559.84179 L 333.36622,559.84179 L 358.04648,515.43638 L 350.28559,515.43638 L 342.69411,529.10529 L 337.78135,515.43638 L 330.51809,515.43638 z"
       id="rect2469" />
    <path
       style="opacity:1;fill:#ffffff;fill-opacity:1;fill-rule:nonzero;stroke:#000000;stroke-width:0.88000630999999996;stroke-miterlimit:4;stroke-dasharray:none;stroke-dashoffset:0;stroke-opacity:1"
       d="M 424.42017,515.92077 L 373.5,690.84375 L 429.6875,690.84375 L 443.40625,643.75 L 500.15625,643.75 L 514.40625,589.5 L 459.1875,589.5 L 465.3032,568.4629 C 466.84965,564.69483 467.84951,560.45306 474.26662,560.90625 L 546.3125,560.90625 L 560.53125,506.84375 L 437.14286,506.84375 C 430.17855,506.05664 426.64511,510.07275 424.42017,515.92077 z"
       id="rect2480"
       sodipodi:nodetypes="ccccccccccccc" />
    <path
       style="opacity:1;fill:#ffffff;fill-opacity:1;fill-rule:nonzero;stroke:#000000;stroke-width:0.61417257999999997;stroke-miterlimit:4;stroke-dasharray:none;stroke-dashoffset:0;stroke-opacity:1"
       d="M 213.96875,377.625 L 163.80033,546.46489 C 163.12584,557.09306 166.88224,560.75839 172.85714,560.9375 L 284.15625,560.9375 L 293.8125,506.96875 L 231.8125,506.96875 L 270.21875,377.625 L 213.96875,377.625 z"
       id="rect2482"
       sodipodi:nodetypes="cccccccc" />
    <path
       style="font-size:64px;font-style:normal;font-variant:normal;font-weight:bold;font-stretch:normal;text-align:start;line-height:100%;writing-mode:lr-tb;text-anchor:start;fill:#000000;fill-opacity:1;stroke:none;stroke-width:1px;stroke-linecap:butt;stroke-linejoin:miter;stroke-opacity:1;font-family:Arial;-inkscape-font-specification:Arial Bold"
       d="M 163.86383,783.65625 C 157.78048,783.65629 153.70757,784.62504 151.61383,786.5625 C 149.52008,788.50004 148.45758,792.27087 148.45758,797.875 C 148.45758,802.66669 149.43674,805.8646 151.42633,807.5 C 153.41591,809.13543 157.34298,809.96877 163.17633,809.96875 C 168.36381,809.96877 171.63464,808.57293 172.98883,805.78125 L 173.14508,805.78125 L 173.14508,812 C 173.14505,815.97918 172.68672,818.39584 171.80133,819.25 C 170.91589,820.10417 168.43672,820.53126 164.33258,820.53125 C 160.5409,820.53126 158.20757,820.20834 157.33258,819.59375 C 156.45757,818.97917 156.02007,817.33334 156.02008,814.625 L 148.14508,814.625 L 148.14508,816.09375 C 148.14508,820.30209 149.24924,823.17709 151.48883,824.71875 C 153.7284,826.26042 157.92632,827.03125 164.05133,827.03125 C 171.9888,827.03125 176.83255,825.86458 178.61383,823.5625 C 180.39504,821.26042 181.30129,814.9896 181.30133,804.71875 C 181.30129,795.17711 180.35338,789.28129 178.48883,787.03125 C 176.62422,784.78129 171.75964,783.65629 163.86383,783.65625 z M 205.42633,783.65625 C 197.59298,783.65629 192.75966,784.79171 190.92633,787.09375 C 189.09299,789.39587 188.17633,795.4792 188.17633,805.3125 C 188.17633,815.14584 189.09299,821.21876 190.92633,823.53125 C 192.75966,825.84375 197.59298,827 205.42633,827 C 213.25964,827 218.09296,825.83333 219.92633,823.53125 C 221.75963,821.22917 222.67629,815.16668 222.67633,805.3125 C 222.67629,795.4792 221.75963,789.39587 219.92633,787.09375 C 218.09296,784.79171 213.25964,783.65629 205.42633,783.65625 z M 244.80133,783.65625 C 238.59298,783.65629 234.43674,784.47921 232.33258,786.15625 C 230.22841,787.83337 229.17633,791.17712 229.17633,796.15625 L 229.17633,797.75 L 236.98883,797.75 L 236.98883,796.5 C 236.98882,793.70837 237.43673,791.93753 238.33258,791.21875 C 239.2284,790.50004 241.39506,790.15629 244.83258,790.15625 C 248.62422,790.15629 250.97839,790.46879 251.86383,791.125 C 252.74922,791.78128 253.1763,793.53128 253.17633,796.34375 C 253.1763,798.86461 252.66589,800.39586 251.67633,800.9375 C 250.68672,801.47919 247.93672,801.75002 243.39508,801.75 L 242.02008,801.71875 L 242.02008,808 L 243.42633,808 L 246.95758,808 C 249.74922,808.00002 251.60339,808.3646 252.48883,809.09375 C 253.37422,809.82293 253.8013,811.33335 253.80133,813.625 C 253.8013,816.62501 253.33255,818.52084 252.36383,819.3125 C 251.39505,820.10417 249.07214,820.50001 245.42633,820.5 C 241.44715,820.50001 238.9784,820.13542 237.98883,819.40625 C 236.99924,818.67709 236.48882,816.84376 236.48883,813.90625 C 236.48882,813.71876 236.45757,813.15626 236.39508,812.21875 L 228.48883,812.21875 L 228.45758,814.59375 C 228.45758,819.40626 229.60341,822.67709 231.92633,824.40625 C 234.24924,826.13542 238.65548,827 245.11383,827 C 251.69714,827 256.12422,826.13542 258.39508,824.40625 C 260.66588,822.67709 261.80129,819.30209 261.80133,814.28125 C 261.80129,808.63543 259.22838,805.53127 254.08258,804.96875 L 254.08258,804.75 C 258.81171,804.02086 261.17629,800.70836 261.17633,794.8125 C 261.17629,790.5417 260.00963,787.61462 257.67633,786.03125 C 255.34297,784.44796 251.0513,783.65629 244.80133,783.65625 z M 462.80133,783.65625 C 456.44715,783.65629 452.1659,784.58338 449.95758,786.4375 C 447.74924,788.29171 446.64508,791.89587 446.64508,797.25 L 446.64508,799.03125 L 454.58258,799.03125 L 454.58258,797.21875 C 454.58257,794.11462 455.05132,792.14587 455.98883,791.34375 C 456.92632,790.5417 459.18673,790.15629 462.77008,790.15625 C 466.24922,790.15629 468.43672,790.55212 469.36383,791.34375 C 470.29089,792.13545 470.77005,794.01045 470.77008,796.96875 C 470.77005,800.05211 470.29089,801.94794 469.36383,802.6875 C 468.43672,803.42711 465.47839,804.26044 460.45758,805.15625 C 454.39507,806.2396 450.54091,807.52085 448.92633,809 C 447.31174,810.47918 446.52008,813.46876 446.52008,817.96875 L 446.52008,826.65625 L 478.77008,826.65625 L 478.77008,820.25 L 454.61383,820.25 L 454.61383,819.09375 C 454.61382,816.09376 455.02007,814.26043 455.83258,813.625 C 456.64507,812.9896 459.56173,812.22918 464.58258,811.3125 C 470.66589,810.18752 474.5513,808.77085 476.23883,807.09375 C 477.92629,805.41669 478.77004,802.11461 478.77008,797.15625 C 478.77004,791.90628 477.64505,788.34379 475.42633,786.46875 C 473.20755,784.59379 469.00964,783.65629 462.80133,783.65625 z M 503.05133,783.65625 C 495.21798,783.65629 490.38466,784.79171 488.55133,787.09375 C 486.71799,789.39587 485.80133,795.4792 485.80133,805.3125 C 485.80133,815.14584 486.71799,821.21876 488.55133,823.53125 C 490.38466,825.84375 495.21798,827 503.05133,827 C 510.88464,827 515.71796,825.83333 517.55133,823.53125 C 519.38463,821.22917 520.30129,815.16668 520.30133,805.3125 C 520.30129,795.4792 519.38463,789.39587 517.55133,787.09375 C 515.71796,784.79171 510.88464,783.65629 503.05133,783.65625 z M 543.17633,783.65625 C 535.34298,783.65629 530.50966,784.79171 528.67633,787.09375 C 526.84299,789.39587 525.92633,795.4792 525.92633,805.3125 C 525.92633,815.14584 526.84299,821.21876 528.67633,823.53125 C 530.50966,825.84375 535.34298,827 543.17633,827 C 551.00964,827 555.84296,825.83333 557.67633,823.53125 C 559.50963,821.22917 560.42629,815.16668 560.42633,805.3125 C 560.42629,795.4792 559.50963,789.39587 557.67633,787.09375 C 555.84296,784.79171 551.00964,783.65629 543.17633,783.65625 z M 581.98883,783.65625 C 575.90548,783.65629 571.83257,784.62504 569.73883,786.5625 C 567.64508,788.50004 566.58258,792.27087 566.58258,797.875 C 566.58258,802.66669 567.56174,805.8646 569.55133,807.5 C 571.54091,809.13543 575.46798,809.96877 581.30133,809.96875 C 586.48881,809.96877 589.75964,808.57293 591.11383,805.78125 L 591.27008,805.78125 L 591.27008,812 C 591.27005,815.97918 590.81172,818.39584 589.92633,819.25 C 589.04089,820.10417 586.56172,820.53126 582.45758,820.53125 C 578.6659,820.53126 576.33257,820.20834 575.45758,819.59375 C 574.58257,818.97917 574.14507,817.33334 574.14508,814.625 L 566.27008,814.625 L 566.27008,816.09375 C 566.27008,820.30209 567.37424,823.17709 569.61383,824.71875 C 571.8534,826.26042 576.05132,827.03125 582.17633,827.03125 C 590.1138,827.03125 594.95755,825.86458 596.73883,823.5625 C 598.52004,821.26042 599.42629,814.9896 599.42633,804.71875 C 599.42629,795.17711 598.47838,789.28129 596.61383,787.03125 C 594.74922,784.78129 589.88464,783.65629 581.98883,783.65625 z M 122.92633,784 L 109.14508,796.84375 L 113.95758,802.0625 L 125.05133,791.0625 L 125.05133,826.65625 L 133.14508,826.65625 L 133.14508,784 L 122.92633,784 z M 164.17633,790.15625 C 168.25964,790.15629 170.8013,790.5417 171.80133,791.3125 C 172.8013,792.08337 173.3013,794.05212 173.30133,797.21875 C 173.3013,799.98961 172.82214,801.70836 171.86383,802.40625 C 170.90547,803.10419 168.49922,803.46877 164.64508,803.46875 C 160.99923,803.46877 158.70757,803.10419 157.80133,802.375 C 156.89507,801.64586 156.45757,799.81253 156.45758,796.875 C 156.45757,793.95837 156.90548,792.09378 157.80133,791.3125 C 158.69715,790.53129 160.82215,790.15629 164.17633,790.15625 z M 582.30133,790.15625 C 586.38464,790.15629 588.9263,790.5417 589.92633,791.3125 C 590.9263,792.08337 591.4263,794.05212 591.42633,797.21875 C 591.4263,799.98961 590.94714,801.70836 589.98883,802.40625 C 589.03047,803.10419 586.62422,803.46877 582.77008,803.46875 C 579.12423,803.46877 576.83257,803.10419 575.92633,802.375 C 575.02007,801.64586 574.58257,799.81253 574.58258,796.875 C 574.58257,793.95837 575.03048,792.09378 575.92633,791.3125 C 576.82215,790.53129 578.94715,790.15629 582.30133,790.15625 z M 204.80133,790.59375 C 209.71797,790.59379 212.59297,791.20837 213.42633,792.4375 C 214.25963,793.6667 214.6763,797.87503 214.67633,805.0625 C 214.6763,812.18751 214.2388,816.46876 213.36383,817.90625 C 212.4888,819.34376 209.87422,820.06251 205.52008,820.0625 C 201.33256,820.06251 198.73882,819.55209 197.73883,818.53125 C 196.73882,817.51043 196.23882,814.84376 196.23883,810.53125 L 196.17633,805.34375 L 196.23883,799.75 C 196.23882,795.77086 196.74924,793.25003 197.73883,792.1875 C 198.7284,791.12504 201.07215,790.59379 204.80133,790.59375 z M 502.42633,790.59375 C 507.34297,790.59379 510.21797,791.20837 511.05133,792.4375 C 511.88463,793.6667 512.3013,797.87503 512.30133,805.0625 C 512.3013,812.18751 511.8638,816.46876 510.98883,817.90625 C 510.1138,819.34376 507.49922,820.06251 503.14508,820.0625 C 498.95756,820.06251 496.36382,819.55209 495.36383,818.53125 C 494.36382,817.51043 493.86382,814.84376 493.86383,810.53125 L 493.80133,805.34375 L 493.86383,799.75 C 493.86382,795.77086 494.37424,793.25003 495.36383,792.1875 C 496.3534,791.12504 498.69715,790.59379 502.42633,790.59375 z M 542.55133,790.59375 C 547.46797,790.59379 550.34297,791.20837 551.17633,792.4375 C 552.00963,793.6667 552.4263,797.87503 552.42633,805.0625 C 552.4263,812.18751 551.9888,816.46876 551.11383,817.90625 C 550.2388,819.34376 547.62422,820.06251 543.27008,820.0625 C 539.08256,820.06251 536.48882,819.55209 535.48883,818.53125 C 534.48882,817.51043 533.98882,814.84376 533.98883,810.53125 L 533.92633,805.34375 L 533.98883,799.75 C 533.98882,795.77086 534.49924,793.25003 535.48883,792.1875 C 536.4784,791.12504 538.82215,790.59379 542.55133,790.59375 z"
       id="text2520" />
  </g>
</svg>
