<?xml version="1.0" encoding="UTF-8" standalone="no"?>
<!-- Created with Inkscape (http://www.inkscape.org/) -->
<svg
   xmlns:svg="http://www.w3.org/2000/svg"
   xmlns="http://www.w3.org/2000/svg"
   version="1.0"
   width="1024"
   height="289"
   viewBox="0 0 186.76151 52.651249"
   id="svg2624">
  <defs
     id="defs2626" />
  <g
     transform="translate(-255.19067,-468.8937)"
     id="layer1">
    <path
       d="M 85.1875,0 C 81.525,0 78.562499,2.9625001 78.5625,6.625 C 78.5625,10.2875 81.524999,13.25 85.1875,13.25 C 88.85,13.25 91.843749,10.2875 91.84375,6.625 C 91.84375,2.9625 88.849999,-8.5296218e-18 85.1875,0 z M 110.65625,16.34375 C 104.69625,16.34375 98.5625,20.74875 98.5625,27.125 C 98.562499,33.96375 102.7375,36.445 108,38.09375 C 115.88,40.565 118.15625,41.96625 118.15625,45.125 C 118.15625,47.778749 116.00375,49.875 111.9375,49.875 C 107.23,49.874998 103.08125,46.05125 102.5,40.5 L 99.1875,40.5 L 99.1875,51.875 L 102.40625,51.875 C 102.40625,51.875002 102.95625,50.115 103.09375,49.6875 C 105.80375,51.782501 108.6525,52.65625 112.25,52.65625 C 118.45375,52.656251 121.67,50.10375 123.53125,47.3125 C 124.87875,45.2925 125.38875,43.155 125.375,40.53125 C 125.3525,36.51625 123.3125,33.125 120.15625,31.375 C 117.47125,29.8875 115.065,29.27125 111.375,28.125 C 107.68625,26.979999 106.21875,25.02 106.21875,23.03125 C 106.21875,21.1875 107.63625,18.90625 111.78125,18.90625 C 115.9225,18.90625 119.085,22.64 119.96875,26.9375 L 123.125,26.9375 L 123.125,17.0625 L 119.96875,17.0625 C 119.96875,17.0625 119.65125,18.53 119.5625,18.9375 C 117.75125,17.557499 115.24125,16.34375 110.65625,16.34375 z M 172.03125,16.34375 C 166.07125,16.34375 159.9375,20.74875 159.9375,27.125 C 159.9375,33.96375 164.115,36.445 169.375,38.09375 C 177.25751,40.565 179.53125,41.96625 179.53125,45.125 C 179.53125,47.778749 177.37625,49.875 173.3125,49.875 C 168.6025,49.874998 164.4875,46.05125 163.90625,40.5 L 160.5625,40.5 L 160.5625,51.875 L 163.78125,51.875 C 163.78125,51.875002 164.36375,50.115 164.5,49.6875 C 167.20875,51.782501 170.0275,52.65625 173.625,52.65625 C 179.82876,52.656251 183.04375,50.10375 184.90625,47.3125 C 186.255,45.2925 186.76375,43.155 186.75,40.53125 C 186.73,36.51625 184.68625,33.125 181.53125,31.375 C 178.845,29.8875 176.44,29.27125 172.75,28.125 C 169.06126,26.979999 167.59375,25.02 167.59375,23.03125 C 167.59375,21.1875 169.045,18.90625 173.1875,18.90625 C 177.33,18.90625 180.4575,22.64 181.34375,26.9375 L 184.5,26.9375 L 184.5,17.0625 L 181.34375,17.0625 C 181.34375,17.0625 181.02875,18.53 180.9375,18.9375 C 179.12624,17.557499 176.61375,16.34375 172.03125,16.34375 z M 0,17.0625 L 0,19.71875 L 4.28125,19.71875 L 4.28125,39.1875 C 4.2812502,42.767502 4.6425,45.375 6.125,47.53125 C 7.8149998,49.989999 11.33375,52.59375 18,52.59375 C 25.888751,52.593748 28.63625,50.23875 30.21875,47.53125 C 31.45125,45.41875 31.59375,42.86 31.59375,38.84375 L 31.59375,19.71875 L 35.875,19.71875 L 35.875,17.0625 L 24.03125,17.0625 L 24.03125,19.71875 L 28.28125,19.71875 C 28.28125,19.718749 28.28125,41.62875 28.28125,42.15625 C 28.28125,46.842498 25.17125,49.03125 21.75,49.03125 C 18.727501,49.031251 17.18,48.17875 16.15625,46.8125 C 15.233749,45.578749 14.9375,43.89375 14.9375,41.59375 C 14.9375,41.303751 14.9375,19.71875 14.9375,19.71875 L 19.21875,19.71875 L 19.21875,17.0625 L 0,17.0625 z M 38.125,17.0625 L 38.125,19.71875 L 41.6875,19.71875 L 41.6875,49.21875 L 37.40625,49.21875 L 37.40625,51.875 L 49.46875,51.875 L 49.46875,49.21875 L 45,49.21875 L 45,25.84375 L 63.71875,51.875 L 68.96875,51.875 L 68.96875,19.71875 L 73.25,19.71875 L 73.25,17.0625 L 61.40625,17.0625 L 61.40625,19.71875 L 65.65625,19.71875 L 65.65625,36.3125 L 51.84375,17.0625 L 38.125,17.0625 z M 75.71875,17.0625 L 75.71875,19.71875 L 80,19.71875 L 80,49.21875 L 75.71875,49.21875 L 75.71875,51.875 L 94.9375,51.875 L 94.9375,49.21875 L 90.65625,49.21875 L 90.65625,19.71875 L 94.9375,19.71875 L 94.9375,17.0625 L 75.71875,17.0625 z M 124.59375,17.0625 L 124.59375,19.71875 L 128.40625,19.71875 C 128.40624,19.718749 137.275,36.98625 137.3125,37.0625 C 137.31249,37.1475 137.3125,49.21875 137.3125,49.21875 L 132.4375,49.21875 L 132.4375,51.875 L 152.875,51.875 L 152.875,49.21875 L 147.96875,49.21875 C 147.96874,49.21875 147.96875,37.1475 147.96875,37.0625 C 148.00749,36.985 156.875,19.71875 156.875,19.71875 L 160.53125,19.71875 L 160.53125,17.0625 L 149.40625,17.0625 L 149.40625,19.71875 L 153.28125,19.71875 L 146.4375,33.3125 L 140,19.71875 L 144.25,19.71875 L 144.25,17.0625 L 124.59375,17.0625 z "
       transform="translate(255.19067,468.8937)"
       style="fill:#d40f41;fill-opacity:1;fill-rule:nonzero;stroke:none"
       id="path18924" />
  </g>
</svg>
